<svg width="140" height="25" viewBox="0 0 140 25" fill="none" xmlns="http://www.w3.org/2000/svg">
<path d="M2.29508 23.8636V1.13636H0V23.8636H2.29508ZM24.0984 22.7273H1.14754V25H24.0984V22.7273ZM22.9508 1.13636V23.8636H25.2459V1.13636H22.9508ZM1.14754 2.27273H24.0984V0H1.14754V2.27273ZM1.14754 23.8636H0V25H1.14754V23.8636ZM24.0984 23.8636V25H25.2459V23.8636H24.0984ZM24.0984 1.13636H25.2459V0H24.0984V1.13636ZM1.14754 1.13636V0H0V1.13636H1.14754Z" fill="#3C3C3C"/>
<path d="M25.246 23.8636V1.13636H22.9509V23.8636H25.246ZM47.0493 22.7273H24.0985V25H47.0493V22.7273ZM45.9017 1.13636V23.8636H48.1968V1.13636H45.9017ZM24.0985 2.27273H47.0493V0H24.0985V2.27273ZM24.0985 23.8636H22.9509V25H24.0985V23.8636ZM47.0493 23.8636V25H48.1968V23.8636H47.0493ZM47.0493 1.13636H48.1968V0H47.0493V1.13636ZM24.0985 1.13636V0H22.9509V1.13636H24.0985Z" fill="#3C3C3C"/>
<path d="M48.1967 23.8636V1.13636H45.9016V23.8636H48.1967ZM70 22.7273H47.0492V25H70V22.7273ZM68.8524 1.13636V23.8636H71.1475V1.13636H68.8524ZM47.0492 2.27273H70V0H47.0492V2.27273ZM47.0492 23.8636H45.9016V25H47.0492V23.8636ZM70 23.8636V25H71.1475V23.8636H70ZM70 1.13636H71.1475V0H70V1.13636ZM47.0492 1.13636V0H45.9016V1.13636H47.0492Z" fill="#3C3C3C"/>
<path d="M71.1476 23.8636V1.13636H68.8525V23.8636H71.1476ZM92.9509 22.7273H70.0001V25H92.9509V22.7273ZM91.8034 1.13636V23.8636H94.0985V1.13636H91.8034ZM70.0001 2.27273H92.9509V0H70.0001V2.27273ZM70.0001 23.8636H68.8525V25H70.0001V23.8636ZM92.9509 23.8636V25H94.0985V23.8636H92.9509ZM92.9509 1.13636H94.0985V0H92.9509V1.13636ZM70.0001 1.13636V0H68.8525V1.13636H70.0001Z" fill="#3C3C3C"/>
<path d="M94.0983 23.8636V1.13636H91.8032V23.8636H94.0983ZM115.902 22.7273H92.9508V25H115.902V22.7273ZM114.754 1.13636V23.8636H117.049V1.13636H114.754ZM92.9508 2.27273H115.902V0H92.9508V2.27273ZM92.9508 23.8636H91.8032V25H92.9508V23.8636ZM115.902 23.8636V25H117.049V23.8636H115.902ZM115.902 1.13636H117.049V0H115.902V1.13636ZM92.9508 1.13636V0H91.8032V1.13636H92.9508Z" fill="#3C3C3C"/>
<path d="M117.049 23.8636V1.13636H114.754V23.8636H117.049ZM138.853 22.7273H115.902V25H138.853V22.7273ZM137.705 1.13636V23.8636H140V1.13636H137.705ZM115.902 2.27273H138.853V0H115.902V2.27273ZM115.902 23.8636H114.754V25H115.902V23.8636ZM138.853 23.8636V25H140V23.8636H138.853ZM138.853 1.13636H140V0H138.853V1.13636ZM115.902 1.13636V0H114.754V1.13636H115.902Z" fill="#3C3C3C"/>
<path fill-rule="evenodd" clip-rule="evenodd" d="M8.42285 6.13638H10.7179V14.6137V18.8637H8.42285V6.13638Z" fill="#3C3C3C"/>
<path d="M9.8689 12.5V14.7727H13.1738C15.4689 14.7727 17.305 12.8182 17.305 10.4546C17.305 8.09093 15.4918 6.13638 13.1738 6.13638H9.8689V8.40911H13.1738C14.1607 8.40911 15.0099 9.29547 15.0099 10.4546C15.0099 11.6137 14.1607 12.5 13.1738 12.5H9.8689Z" fill="#3C3C3C"/>
<path d="M37.8689 6.13638H40.164V14.6137C40.164 16.9773 38.0755 18.8637 35.5738 18.8637C33.0722 18.8637 30.9836 17 30.9836 14.6137V6.13638H33.2787V14.6137C33.2787 15.6818 34.2886 16.5909 35.5738 16.5909C36.8591 16.5909 37.8689 15.6818 37.8689 14.6137V6.13638Z" fill="#3C3C3C"/>
<path fill-rule="evenodd" clip-rule="evenodd" d="M62.7704 8.36366L56.7573 16.6364H62.4721V18.8637H53.7966V16.6364L59.718 8.36366H55.8622V9.45456H53.7048V7.93184V6.13638H62.7704V8.36366Z" fill="#3C3C3C"/>
<path fill-rule="evenodd" clip-rule="evenodd" d="M76.6558 16.6364L82.6689 8.36366H76.6558V6.13638H85.7213V8.36366L79.7082 16.6364H83.564V15.5455H85.7213V17.0682V18.8637H76.6558V16.6364Z" fill="#3C3C3C"/>
<path fill-rule="evenodd" clip-rule="evenodd" d="M106.01 15.5H108.282V18.8637H99.8362V6.13638H102.361V16.6364H106.01V15.5Z" fill="#3C3C3C"/>
<path fill-rule="evenodd" clip-rule="evenodd" d="M123.016 6.13638H131.302V8.36366H125.311V11.3182H131.302V13.5455H125.311V16.6364H131.302V18.8637H123.016V6.13638Z" fill="#3C3C3C"/>
</svg>
